<svg width="94" height="107" viewBox="0 0 94 107" fill="none" xmlns="http://www.w3.org/2000/svg">
<path fill-rule="evenodd" clip-rule="evenodd" d="M46.8822 0.074707L18.5455 16.3537L28.9635 22.3677L46.8822 12.1025L64.8007 22.3677L75.2186 16.3537L46.8822 0.074707ZM64.8007 30.8702L75.2186 36.884V48.9119L57.2997 59.1769V79.7074L46.8822 85.7214L36.4643 79.7074V59.1769L18.5455 48.9119V36.884L28.9635 30.8702L46.8822 41.1351L64.8007 30.8702ZM75.2186 57.4143V69.4421L64.8007 75.4563V63.428L75.2186 57.4143ZM64.6965 83.9583L82.6155 73.6932V53.1629L93.033 47.1492V79.7074L64.6965 95.9861V83.9583ZM82.6155 32.6328L72.1974 26.6189L82.6155 20.605L93.033 26.6189V38.6468L82.6155 44.6608V32.6328ZM36.4643 100.341V88.3135L46.8822 94.3271L57.2997 88.3135V100.341L46.8822 106.355L36.4643 100.341ZM28.9635 75.4563L18.5455 69.4421V57.4143L28.9635 63.428V75.4563ZM46.8822 32.6328L36.4643 26.6189L46.8822 20.605L57.2997 26.6189L46.8822 32.6328ZM21.5667 26.6189L11.1488 32.6328V44.6608L0.730957 38.6468V26.6189L11.1488 20.605L21.5667 26.6189ZM0.730957 47.1492L11.1488 53.1629V73.6932L29.0675 83.9583V95.9861L0.730957 79.7074V47.1492Z" fill="#FCD535"/>
</svg>
